<mxfile host="65bd71144e">
    <diagram id="YQoi9H0mSZYJGYXJblhW" name="PÃ¡gina-1">
        <mxGraphModel dx="1069" dy="800" grid="1" gridSize="10" guides="1" tooltips="1" connect="1" arrows="1" fold="1" page="1" pageScale="1" pageWidth="827" pageHeight="1169" math="0" shadow="0">
            <root>
                <mxCell id="0"/>
                <mxCell id="1" parent="0"/>
                <mxCell id="22" value="" style="shape=table;html=1;whiteSpace=wrap;startSize=0;container=1;collapsible=0;childLayout=tableLayout;" vertex="1" parent="1">
                    <mxGeometry x="49" y="130" width="730" height="210" as="geometry"/>
                </mxCell>
                <mxCell id="23" style="shape=tableRow;horizontal=0;startSize=0;swimlaneHead=0;swimlaneBody=0;top=0;left=0;bottom=0;right=0;collapsible=0;dropTarget=0;fillColor=none;points=[[0,0.5],[1,0.5]];portConstraint=eastwest;" vertex="1" parent="22">
                    <mxGeometry width="730" height="70" as="geometry"/>
                </mxCell>
                <mxCell id="24" value="&lt;font style=&quot;font-size: 24px&quot;&gt;P1&lt;/font&gt;" style="shape=partialRectangle;html=1;whiteSpace=wrap;connectable=0;fillColor=none;top=0;left=0;bottom=0;right=0;overflow=hidden;" vertex="1" parent="23">
                    <mxGeometry width="146" height="70" as="geometry">
                        <mxRectangle width="146" height="70" as="alternateBounds"/>
                    </mxGeometry>
                </mxCell>
                <mxCell id="25" value="1,4,8,10" style="shape=partialRectangle;html=1;whiteSpace=wrap;connectable=0;fillColor=#f8cecc;top=0;left=0;bottom=0;right=0;overflow=hidden;strokeColor=#b85450;" vertex="1" parent="23">
                    <mxGeometry x="146" width="146" height="70" as="geometry">
                        <mxRectangle width="146" height="70" as="alternateBounds"/>
                    </mxGeometry>
                </mxCell>
                <mxCell id="26" value="5,9,11,16" style="shape=partialRectangle;html=1;whiteSpace=wrap;connectable=0;fillColor=#f8cecc;top=0;left=0;bottom=0;right=0;overflow=hidden;strokeColor=#b85450;" vertex="1" parent="23">
                    <mxGeometry x="292" width="146" height="70" as="geometry">
                        <mxRectangle width="146" height="70" as="alternateBounds"/>
                    </mxGeometry>
                </mxCell>
                <mxCell id="27" value="2,6,12,15" style="shape=partialRectangle;html=1;whiteSpace=wrap;connectable=0;fillColor=#f8cecc;top=0;left=0;bottom=0;right=0;overflow=hidden;strokeColor=#b85450;" vertex="1" parent="23">
                    <mxGeometry x="438" width="146" height="70" as="geometry">
                        <mxRectangle width="146" height="70" as="alternateBounds"/>
                    </mxGeometry>
                </mxCell>
                <mxCell id="28" value="3,7,13,14" style="shape=partialRectangle;html=1;whiteSpace=wrap;connectable=0;fillColor=#f8cecc;top=0;left=0;bottom=0;right=0;overflow=hidden;strokeColor=#b85450;" vertex="1" parent="23">
                    <mxGeometry x="584" width="146" height="70" as="geometry">
                        <mxRectangle width="146" height="70" as="alternateBounds"/>
                    </mxGeometry>
                </mxCell>
                <mxCell id="29" style="shape=tableRow;horizontal=0;startSize=0;swimlaneHead=0;swimlaneBody=0;top=0;left=0;bottom=0;right=0;collapsible=0;dropTarget=0;fillColor=none;points=[[0,0.5],[1,0.5]];portConstraint=eastwest;" vertex="1" parent="22">
                    <mxGeometry y="70" width="730" height="70" as="geometry"/>
                </mxCell>
                <mxCell id="30" value="&lt;font style=&quot;font-size: 24px&quot;&gt;P2&lt;/font&gt;" style="shape=partialRectangle;html=1;whiteSpace=wrap;connectable=0;fillColor=none;top=0;left=0;bottom=0;right=0;overflow=hidden;" vertex="1" parent="29">
                    <mxGeometry width="146" height="70" as="geometry">
                        <mxRectangle width="146" height="70" as="alternateBounds"/>
                    </mxGeometry>
                </mxCell>
                <mxCell id="31" value="1,2,9,15" style="shape=partialRectangle;html=1;whiteSpace=wrap;connectable=0;fillColor=#d5e8d4;top=0;left=0;bottom=0;right=0;overflow=hidden;strokeColor=#82b366;" vertex="1" parent="29">
                    <mxGeometry x="146" width="146" height="70" as="geometry">
                        <mxRectangle width="146" height="70" as="alternateBounds"/>
                    </mxGeometry>
                </mxCell>
                <mxCell id="32" value="3,4,10,13" style="shape=partialRectangle;html=1;whiteSpace=wrap;connectable=0;fillColor=#d5e8d4;top=0;left=0;bottom=0;right=0;overflow=hidden;strokeColor=#82b366;" vertex="1" parent="29">
                    <mxGeometry x="292" width="146" height="70" as="geometry">
                        <mxRectangle width="146" height="70" as="alternateBounds"/>
                    </mxGeometry>
                </mxCell>
                <mxCell id="33" value="5,6,8,16" style="shape=partialRectangle;html=1;whiteSpace=wrap;connectable=0;fillColor=#d5e8d4;top=0;left=0;bottom=0;right=0;overflow=hidden;strokeColor=#82b366;" vertex="1" parent="29">
                    <mxGeometry x="438" width="146" height="70" as="geometry">
                        <mxRectangle width="146" height="70" as="alternateBounds"/>
                    </mxGeometry>
                </mxCell>
                <mxCell id="34" value="7,11,12,14" style="shape=partialRectangle;html=1;whiteSpace=wrap;connectable=0;fillColor=#d5e8d4;top=0;left=0;bottom=0;right=0;overflow=hidden;strokeColor=#82b366;" vertex="1" parent="29">
                    <mxGeometry x="584" width="146" height="70" as="geometry">
                        <mxRectangle width="146" height="70" as="alternateBounds"/>
                    </mxGeometry>
                </mxCell>
                <mxCell id="35" style="shape=tableRow;horizontal=0;startSize=0;swimlaneHead=0;swimlaneBody=0;top=0;left=0;bottom=0;right=0;collapsible=0;dropTarget=0;fillColor=none;points=[[0,0.5],[1,0.5]];portConstraint=eastwest;" vertex="1" parent="22">
                    <mxGeometry y="140" width="730" height="70" as="geometry"/>
                </mxCell>
                <mxCell id="36" value="&lt;span style=&quot;font-size: 24px&quot;&gt;C&lt;/span&gt;" style="shape=partialRectangle;html=1;whiteSpace=wrap;connectable=0;fillColor=none;top=0;left=0;bottom=0;right=0;overflow=hidden;" vertex="1" parent="35">
                    <mxGeometry width="146" height="70" as="geometry">
                        <mxRectangle width="146" height="70" as="alternateBounds"/>
                    </mxGeometry>
                </mxCell>
                <mxCell id="37" value="&lt;span style=&quot;color: rgb(0 , 0 , 0) ; font-family: &amp;#34;helvetica&amp;#34; ; font-size: 12px ; font-style: normal ; font-weight: 400 ; letter-spacing: normal ; text-align: center ; text-indent: 0px ; text-transform: none ; word-spacing: 0px ; display: inline ; float: none&quot;&gt;1,2,&lt;/span&gt;&lt;span style=&quot;font-family: &amp;#34;helvetica&amp;#34; ; font-size: 12px ; font-style: normal ; font-weight: 400 ; letter-spacing: normal ; text-align: center ; text-indent: 0px ; text-transform: none ; word-spacing: 0px ; display: inline ; float: none&quot;&gt;&lt;font color=&quot;#ff005e&quot;&gt;4&lt;/font&gt;&lt;/span&gt;&lt;span style=&quot;color: rgb(0 , 0 , 0) ; font-family: &amp;#34;helvetica&amp;#34; ; font-size: 12px ; font-style: normal ; font-weight: 400 ; letter-spacing: normal ; text-align: center ; text-indent: 0px ; text-transform: none ; word-spacing: 0px ; display: inline ; float: none&quot;&gt;,15&lt;/span&gt;" style="shape=partialRectangle;html=1;whiteSpace=wrap;connectable=0;fillColor=#d5e8d4;top=0;left=0;bottom=0;right=0;overflow=hidden;strokeColor=#82b366;" vertex="1" parent="35">
                    <mxGeometry x="146" width="146" height="70" as="geometry">
                        <mxRectangle width="146" height="70" as="alternateBounds"/>
                    </mxGeometry>
                </mxCell>
                <mxCell id="38" value="5,9,11,16" style="shape=partialRectangle;html=1;whiteSpace=wrap;connectable=0;fillColor=#f8cecc;top=0;left=0;bottom=0;right=0;overflow=hidden;strokeColor=#b85450;" vertex="1" parent="35">
                    <mxGeometry x="292" width="146" height="70" as="geometry">
                        <mxRectangle width="146" height="70" as="alternateBounds"/>
                    </mxGeometry>
                </mxCell>
                <mxCell id="39" value="&lt;font color=&quot;#ff0d35&quot;&gt;5,&lt;/font&gt;6,8,&lt;font color=&quot;#ff1940&quot;&gt;13&lt;/font&gt;" style="shape=partialRectangle;html=1;whiteSpace=wrap;connectable=0;fillColor=#d5e8d4;top=0;left=0;bottom=0;right=0;overflow=hidden;strokeColor=#82b366;" vertex="1" parent="35">
                    <mxGeometry x="438" width="146" height="70" as="geometry">
                        <mxRectangle width="146" height="70" as="alternateBounds"/>
                    </mxGeometry>
                </mxCell>
                <mxCell id="40" value="7,&lt;font color=&quot;#ff171f&quot;&gt;10&lt;/font&gt;,12,14" style="shape=partialRectangle;html=1;whiteSpace=wrap;connectable=0;fillColor=#d5e8d4;top=0;left=0;bottom=0;right=0;overflow=hidden;strokeColor=#82b366;" vertex="1" parent="35">
                    <mxGeometry x="584" width="146" height="70" as="geometry">
                        <mxRectangle width="146" height="70" as="alternateBounds"/>
                    </mxGeometry>
                </mxCell>
            </root>
        </mxGraphModel>
    </diagram>
</mxfile>